<?xml version="1.0" encoding="utf-8"?>
<!-- Generator: Adobe Illustrator 24.0.1, SVG Export Plug-In . SVG Version: 6.00 Build 0)  -->
<svg version="1.1" id="Layer_1" xmlns="http://www.w3.org/2000/svg" xmlns:xlink="http://www.w3.org/1999/xlink" x="0px" y="0px"
	 viewBox="0 0 3553 2000" style="enable-background:new 0 0 3553 2000;" xml:space="preserve">
<style type="text/css">
	.st0{fill:#CCFFFF;}
	.st1{fill:#3C8F7C;}
	.st2{fill:#50BFA5;}
	.st3{fill:#256653;}
	.st4{fill:#327F6B;}
	.st5{fill:#96D9C9;}
	.st6{fill:#F7A491;}
	.st7{fill:#000066;}
	.st8{fill:#6666FF;}
	.st9{fill:#13375B;}
	.st10{fill:#F7CC7F;}
	.st11{fill:#F48C7F;}
	.st12{fill:#355389;}
	.st13{fill:#CC6600;}
	.st14{fill:#F47458;}
	.st15{fill:#FFFFFF;}
	.st16{fill:#F8A492;}
	.st17{fill:#003366;}
	.st18{fill:#184655;}
	.st19{fill:#E25A44;}
	.st20{fill:#336699;}
	.st21{fill:#F79C8D;}
	.st22{fill:#466EB6;}
</style>
<g>
	<path id="XMLID_1_" class="st0" d="M1074.3,100.2C1538.7,74.1,2025.6,210,1954,406.9c-71.6,196.9,382.6-70,563.9,1
		c129,50.5,77.5,204.4,139.9,266.5c143.1,142.2,289.5-36.9,471.7,70.6s-93.6,1106.7-283.9,1112.3L577.7,1848l-155.8-13.6
		c0,0-430.9-228.1-122.6-438.5c208.4-142.3,58.5-245.6,35.8-310.7c-26-74.8-86.7-205.4,177.8-301.2s196.3-304.4,189.8-347.6
		C696.1,393.3,609.9,126.3,1074.3,100.2L1074.3,100.2z"/>
	<g>
		<g>
			<g>
				<path class="st1" d="M735.2,1846.6c0,0,166.9-82.3,195.6-125.2c28.7-42.9-13.5-45.3-13.5-45.3s74.5-72.4,64-102.9
					c-10.5-30.5-49-2.5-49-2.5s47.9-106.6,25.3-117.3c-42-20-101,94.7-101,94.7s12.7-49.8-16.3-48.2
					c-43.7,2.4-41.9,115.1-41.9,115.1s-4.9-43.2-31.3-29.2C719.9,1611,735.2,1846.6,735.2,1846.6z"/>
			</g>
			<path class="st2" d="M757.6,1568.4c20.6-11.4,41,21.9,41,21.9s-2.1-88,41.6-90.5c29-1.6,16.3,48.2,16.3,48.2s59-114.7,101-94.7
				L735,1844.8C733.5,1817.5,716.9,1591,757.6,1568.4z"/>
		</g>
		<g>
			<g>
				<path class="st1" d="M739.5,1847.7c0,0,136.5,16.9,171.8,1.8s10-33.8,10-33.8s75.9-14.9,81.7-38.2c5.8-23.3-29.2-21.4-29.2-21.4
					s72.8-47.1,63-63c-18.1-29.5-101.5,18-101.5,18s28.2-25.9,9.4-36.7c-28.2-16.2-72.9,54.8-72.9,54.8s2.8-17.5-19.3-19.4
					C813,1706.4,739.5,1847.7,739.5,1847.7z"/>
			</g>
			<path class="st2" d="M851.8,1697.1c22.1,1.9,20.2,32.2,20.2,32.2s45.5-84.2,73.7-68c18.7,10.8-3.4,46.1-3.4,46.1
				s76.6-43.8,94.7-14.3l-297.9,153.7C749.3,1829.2,814.7,1693.9,851.8,1697.1z"/>
		</g>
	</g>
	<g>
		<g>
			<g>
				<path class="st1" d="M2201,1220c0,0-183.8-90.6-215.3-137.9c-31.6-47.3,14.8-49.9,14.8-49.9s-82-79.8-70.5-113.3s54-2.8,54-2.8
					s-52.7-117.4-27.9-129.2c46.3-22,111.3,104.3,111.3,104.3s-14-54.9,17.9-53.1c48.1,2.7,46.1,126.8,46.1,126.8
					s5.4-47.6,34.4-32.1C2217.9,960.6,2201,1220,2201,1220z"/>
			</g>
			<path class="st2" d="M2176.4,913.7c-22.6-12.6-45.2,24.2-45.2,24.2s2.3-96.9-45.8-99.6c-31.9-1.8-17.9,53.1-17.9,53.1
				s-65-126.3-111.3-104.3l245,431C2203,1187.9,2221.2,938.5,2176.4,913.7z"/>
		</g>
		<g>
			<g>
				<path class="st1" d="M2196.3,1221.2c0,0-150.3,18.7-189.2,2c-38.9-16.6-11-37.2-11-37.2s-83.6-16.4-90-42.1s32.1-23.6,32.1-23.6
					s-80.1-51.9-69.4-69.3c19.9-32.5,111.8,19.8,111.8,19.8s-31-28.5-10.4-40.4c31.1-17.9,80.3,60.3,80.3,60.3s-3.1-19.3,21.3-21.4
					C2115.4,1065.6,2196.3,1221.2,2196.3,1221.2z"/>
			</g>
			<path class="st2" d="M2072.7,1055.4c-24.4,2.1-22.3,35.4-22.3,35.4s-50.1-92.7-81.2-74.8c-20.6,11.8,3.8,50.8,3.8,50.8
				s-84.3-48.2-104.3-15.7l328,169.3C2185.6,1200.8,2113.5,1051.8,2072.7,1055.4z"/>
		</g>
	</g>
	<g>
		<path class="st3" d="M296,845.7c0,0,31.3,68,52.3,96.8c21,28.7,41.1,56.2,57.8,136c16.8,79.8,13.9,87.8,18.5,108.4
			s34.5,104.1,34.6,119.4c0.2,15.3,60.4,102.4,75.8,143.2c15.4,40.8,42.8,99,41.2,128.7l-6.9-1.7c0,0-5.6-69.2-53.2-139
			c-47.6-69.9-40.8-83.1-94.9-119s-89-135.1-89-135.1s-55-107.7-52.4-163.7S267.9,913,296,845.7z"/>
		<path class="st3" d="M369.2,741.1c0,0,1.8,44.7,16.2,71.2c14.4,26.5,26.8,42.7,29.5,71.4c2.6,28.7,11.7,102.8,51.9,138.9
			c40.2,36.2,45.3,144.5,75.9,177.2c30.6,32.8,34.6,56.3,28.9,112.5s-24.8,134.1,19.5,235.7l10-25.3c0,0-31.8-83.6-24.1-132.6
			c7.7-49,34.4-123,24.6-158.4c-9.8-35.5,26.6-42.4,4.7-96.1c-21.9-53.7-12.9-72.3-42.8-118.7c0,0-3.1-2.2-10.9-41.4
			c-7.8-39.3-71.1-111.2-100.3-135.8C423.4,815.2,381.4,775.8,369.2,741.1z"/>
		<path class="st1" d="M487.9,962.3c0,0,34.9,59.8,35.4,98.2c0.5,38.5-3.7,69.8,14,122.4c17.7,52.7-17.4,86-7.3,115.1
			c10.1,29.1,10.9,63.5,10.6,89.6s40,112.5,46.1,156.3s-1.7,43.9-1.7,43.9s-6.7-57.8-16-76.9s-37.5-85-44-110.4
			c-6.6-25.5-24.4-41.8-39.8-85c-15.4-43.2-37.3-79.5-35.6-140.7S426.6,1049,487.9,962.3z"/>
		<path class="st1" d="M561.8,1547.8c0,0-16.3-75.8-84.9-83.4c-68.6-7.6-109,6-157.5-49.4s-76.6-143.3-92.1-158.5
			c0,0,24.4-12.5,64.9,25.3c40.5,37.9,69,66.6,92.4,88.6s42.5,7.7,67.3,22.2c20.8,12.2,47.6,47.4,59.4,65.8
			c3.8,6,8.4,11.5,13.6,16.3c4.8,4.4,10.4,9.8,14,13.7c7.3,7.9,28.2,59.5,28.2,59.5L561.8,1547.8z"/>
		<path class="st1" d="M586,1534.4c0,0-24.2-92.8-8-138.1s66.9-79,64.9-107.5s-34.6-105.6-8-162.9c0,0,10.1,51.2,20,62.6
			c10,11.4,78.3,57.3,66.2,117.9s-78.5,74.8-94.9,92.7c-16.3,17.8-38.4,17.8-38.6,29.7s-4.5,55,2.9,97.6L586,1534.4z"/>
		<path class="st4" d="M559.6,1472.3l-34-97.9c0,0-20-78.7-31.5-144.4c-11.6-65.7-6.1-267.7-6.1-267.7s34.9,59.8,35.4,98.2
			c0.5,38.5-3.7,69.8,14,122.4c17.7,52.7-17.4,86-7.3,115.1c10.1,29.1,10.9,63.5,10.6,89.6c-0.3,26.1,40,112.5,46.1,156.3
			c3.4,24,2.5,34.8,1.1,39.8C593.3,1545.4,559.6,1472.3,559.6,1472.3z"/>
		<path class="st4" d="M392.2,1414c30.3,6.1,57.4,4,93.4,30.8s57.1,55.4,57.1,55.4s16.2,28.9,22.9,44.2c1,2.3,1.5,3.7,1.5,3.7
			l-5.3-0.3c0,0-16.3-75.8-84.9-83.4c-68.6-7.6-109,6-157.5-49.4s-76.6-143.3-92.1-158.5c0,0,51.6,40.1,83.4,75.6
			C342.6,1367.6,361.9,1407.9,392.2,1414z"/>
		<path class="st4" d="M654.9,1188.3c10,11.4,78.3,57.3,66.2,117.9s-78.5,74.8-94.9,92.7c-16.3,17.8-38.4,17.8-38.6,29.7
			s-4.5,55,2.9,97.6l-2,3.6c-3.6-16.6-8.6-41.9-10.2-61.2c-2.6-31.2,2.4-44.1,12.5-69.4s72.4-76.8,88-103.8s-30.1-72.3-40.3-94.2
			c-10.2-21.8-3.7-75.4-3.7-75.4S645,1176.9,654.9,1188.3z"/>
	</g>
	<g>
		<path class="st2" d="M492.9,1489.6l-10.7-25.8c-8.3-19-29.5-28-47.3-20.2l0,0c-45,19.6-64.6,74.3-43.7,122.1l15.3,34.9
			c6.7,15.3,4.4,32.2-4.7,44c-8.2,10.8-9.5,25.8-3.9,38.8l8,18.4c8.7,19.9,25.6,34.7,45.7,40.8c11.8,3.6,22.1,12.4,27.6,24.9
			l11.4,26.1c12.6,28.8,44.8,42.6,71.9,30.8l15.5-6.8c27.2-11.8,39-44.8,26.4-73.7l0,0c-20.4-34.5-18.7-60.2-11.5-77.7
			c10.6-25.7,10.5-55.2-1-81.5l-1.6-3.7c-12.1-27.7-35.5-48.5-63.3-57.3C514.8,1519.9,502,1510.3,492.9,1489.6z"/>
		<path class="st5" d="M685,1853.7c-21.8-28.3-141.6-180-219.6-205.2c-86.2-27.9-5,82.9-5,82.9s-152.9-167.2-209-152.1
			c-51.4,13.8,0,117.4,0,117.4s-57.9-57.4-128.1-57.4c-68.4,0,47.8,203.5,54,214.4L685,1853.7L685,1853.7z"/>
		<g>
			<g>
				<path class="st1" d="M224.3,1525.6c62.5,97.6,108,205.9,134.1,321l4.3-1.2c-26-112.7-71.2-220.9-133.6-318.3
					c-14.5-22.7-30.1-49.5-57.3-58.3c-0.5-0.2-0.7,0.6-0.2,0.8C196.4,1479,210.8,1504.5,224.3,1525.6z"/>
			</g>
			<g>
				<path class="st1" d="M343.4,1850.7c-69.8-94.9-154.6-182.6-255.5-258.9c-1-0.8-2.4,1-1.3,1.8c95.7,73.6,180.4,160.4,251.6,258.6
					L343.4,1850.7z"/>
			</g>
			<path class="st1" d="M218.6,1465.1c-1.6,2.4-7.8,8.5-9.6,16.6c-2.4,7.7-0.5,17.3-0.3,17c0.5,0.2-7.1-6.2-9.5-16.4
				c-3.1-9.8-0.9-23.3,2.9-27.8c6.6-10.2,18.1-11.2,20.3-6.3C224.8,1453.1,221.8,1459.8,218.6,1465.1z"/>
			<path class="st1" d="M203.7,1552.2c2.3-1.7,8.4-7.9,16.4-9.9c7.6-2.6,17.3-0.8,17-0.6c0.2,0.5-6.4-7-16.6-9.2
				c-9.8-2.9-23.4-0.5-27.8,3.4c-10,6.8-10.8,18.3-5.9,20.5C191.8,1558.7,198.4,1555.6,203.7,1552.2z"/>
			<path class="st1" d="M226.2,1590.4c2.3-1.7,8.4-7.9,16.4-9.9c7.6-2.6,17.3-0.8,17-0.6c0.2,0.5-6.4-7-16.6-9.2
				c-9.8-2.9-23.4-0.5-27.8,3.4c-10,6.8-10.8,18.3-5.9,20.5C214.3,1596.8,220.9,1593.7,226.2,1590.4z"/>
			<path class="st1" d="M145.8,1678.9c2.3-1.7,8.4-7.9,16.4-9.9c7.6-2.6,17.3-0.8,17-0.6c0.2,0.5-6.4-7-16.6-9.2
				c-9.8-2.9-23.4-0.5-27.8,3.4c-10,6.8-10.8,18.3-5.9,20.5C133.9,1685.4,140.5,1682.2,145.8,1678.9z"/>
			<path class="st1" d="M104.7,1642.7c2.3-1.7,8.4-7.9,16.4-9.9c7.6-2.6,17.3-0.8,17-0.6c0.2,0.5-6.4-7-16.6-9.2
				c-9.8-2.9-23.4-0.5-27.8,3.4c-10,6.8-10.8,18.3-5.9,20.5C92.8,1649.2,99.4,1646,104.7,1642.7z"/>
			<path class="st1" d="M250.1,1508.3c-2,2.1-9,7.2-12.1,14.9c-3.6,7.2-3.2,17-3,16.7c0.4,0.3-6.1-7.3-6.8-17.7
				c-1.5-10.2,2.8-23.2,7.3-27.1c8.1-9,19.6-8.2,21.1-3C258.2,1497.4,254.2,1503.5,250.1,1508.3z"/>
			<path class="st1" d="M283.3,1551.6c-2.8,1.5-12.5,4.2-17.4,11.5c-5.5,6.5-6.3,17.6-5.9,17.4c0.5,0.5-6.9-10.7-6.6-22.7
				c-0.7-12,6.4-24.7,12.7-27.1c11.6-6.6,26.4-0.7,27.6,5.7C295.1,1542.9,289.1,1548,283.3,1551.6z"/>
			<path class="st1" d="M318.2,1617.2c-3,1-13.1,2-19.1,8.4c-6.6,5.5-9.1,16.3-8.7,16.1c0.4,0.6-5-11.7-2.7-23.5
				c1.3-11.9,10.5-23.3,17-24.6c12.5-4.5,26.2,3.8,26.3,10.3C331.3,1610.6,324.5,1614.6,318.2,1617.2z"/>
			<path class="st1" d="M214.9,1662.8c-2.2,1.4-10,4.1-13.5,10.3c-4.1,5.6-4.1,14.7-3.8,14.5c0.4,0.4-6.3-8.3-6.7-18.1
				c-1.2-9.7,3.8-20.5,8.8-22.7c9.1-6,21.4-2.1,22.8,3.1C224,1655.1,219.5,1659.5,214.9,1662.8z"/>
			<path class="st1" d="M161.2,1480.5c1.3-1.1,4.6-5.1,9.3-6.6c4.4-1.9,10.2-1.3,10-1.1c0.1,0.3-4.1-3.9-10.2-4.7
				c-5.9-1.3-13.8,0.8-16.3,3.3c-5.6,4.5-5.6,11.3-2.6,12.4C154.4,1484.8,158.2,1482.7,161.2,1480.5z"/>
			<path class="st1" d="M173.7,1452.6c-0.1,1.7-1.2,6.7,0.5,11.4c1.2,4.6,5.2,8.8,5.2,8.6c0.3-0.1-5.5-0.9-10-5.2
				c-4.6-3.9-7.9-11.4-7.4-14.9c0.1-7.2,5.5-11.3,8.2-9.6C173,1444.6,173.6,1448.9,173.7,1452.6z"/>
			<path class="st1" d="M75.1,1605.8c1.3-1.1,4.6-5.1,9.3-6.6c4.4-1.9,10.2-1.3,10-1.1c0.1,0.3-4.1-3.9-10.2-4.7
				c-5.9-1.3-13.8,0.8-16.3,3.3c-5.6,4.5-5.6,11.3-2.6,12.4C68.3,1610.2,72.1,1608,75.1,1605.8z"/>
			<path class="st1" d="M90.2,1577.7c-0.2,1.7-1.7,6.6-0.5,11.4c0.8,4.7,4.5,9.2,4.5,9c0.3,0-5.4-1.3-9.5-6
				c-4.3-4.3-6.9-12-6.1-15.4c0.7-7.2,6.4-10.9,9-8.9C90.2,1569.7,90.4,1574,90.2,1577.7z"/>
		</g>
		<g>
			<g>
				<path class="st1" d="M100.7,1759.3c63.8,7,123.2,35.1,180.4,62.6c38.6,18.5,36.6,23.8,44.5,26.5c1.3,0.4,2.5-0.9,1.9-2.2
					c-3-6-10.9-10-16.5-13.5c-6.4-4-13.1-7.6-19.9-10.8c-14.5-7.1-29.5-13.4-44.3-19.9c-30.2-13.1-60.9-25.4-92.7-33.8
					c-17.5-4.6-35.3-7.9-53.3-9.5C100.4,1758.7,100.4,1759.2,100.7,1759.3L100.7,1759.3z"/>
			</g>
			<path class="st1" d="M158.2,1739.5c-0.4,2.6-3.1,10.2-1.5,17.7c1,7.4,6.4,14.7,6.4,14.3c0.5,0-8.4-2.4-14.4-10
				c-6.4-7-10-19.2-8.6-24.5c1.5-11.1,10.8-16.5,14.6-13.3C158.7,1726.9,158.8,1733.7,158.2,1739.5z"/>
			<path class="st1" d="M214.4,1759.6c-0.4,2.6-3.1,10.2-1.5,17.7c1,7.4,6.4,14.7,6.4,14.3c0.5,0-8.4-2.4-14.4-10
				c-6.4-7-10-19.2-8.6-24.5c1.5-11.1,10.8-16.5,14.6-13.3C214.9,1747.1,215,1753.8,214.4,1759.6z"/>
			<path class="st1" d="M271.5,1785.1c-0.4,2.6-3.1,10.2-1.5,17.7c1,7.4,6.4,14.7,6.4,14.3c0.5,0-8.4-2.4-14.4-10
				c-6.4-7-10-19.2-8.6-24.5c1.5-11.1,10.8-16.5,14.6-13.3C272,1772.5,272,1779.3,271.5,1785.1z"/>
			<path class="st1" d="M141.4,1792c1.1-2.2,3.4-9.3,8.8-13.9c4.9-4.9,12.9-7.3,12.8-7c0.3,0.3-7.6-2.9-16.2-0.7
				c-8.6,1.6-18.1,8.6-20,13.3c-5.1,9-1.3,18.2,3.3,17.9C134.8,1801.5,138.6,1796.6,141.4,1792z"/>
			<path class="st1" d="M199.9,1812.7c1.1-2.2,3.4-9.3,8.8-13.9c4.9-4.9,12.9-7.3,12.8-7c0.3,0.3-7.6-2.9-16.2-0.7
				c-8.6,1.6-18.1,8.6-20,13.3c-5.1,9-1.3,18.2,3.3,17.9C193.2,1822.2,197.1,1817.3,199.9,1812.7z"/>
			<path class="st1" d="M96.9,1770.7c1-1.2,3.3-5.4,7.4-7.6c3.7-2.4,9.1-2.9,8.9-2.7c0.2,0.2-4.3-2.8-10.1-2.6
				c-5.6-0.2-12.5,3-14.3,5.7c-4.4,5-3.2,11.3-0.3,11.7C91.5,1775.8,94.6,1773.2,96.9,1770.7z"/>
			<path class="st1" d="M103.7,1743.2c0.2,1.6,0,6.3,2.3,10.3c1.9,4,6.2,7.2,6.2,7c0.3-0.1-5.2,0.1-9.9-3.1
				c-4.9-2.8-9.1-9.1-9.2-12.3c-1.1-6.6,3.1-11.3,5.9-10.1C101.7,1736,103,1739.8,103.7,1743.2z"/>
		</g>
	</g>
	<g>
		<g>
			<g>
				<path class="st1" d="M2980.4,1331.7c81.4-72.6,123.2-176.8,144-251.5c22.6-81,25.8-145.7,25.9-146.4l4.4-0.3
					c0,0.7-3.3,65.8-26,147.4c-21,75.4-63.3,180.7-145.7,254.2L2980.4,1331.7z"/>
			</g>
			<g>
				<path class="st1" d="M3141,915.1c-4,18.7-0.6,36.3,7.9,49c13.4-9.9,24-25.7,28-44.3s0.6-36.3-7.9-49
					C3155.5,880.6,3145,896.4,3141,915.1z"/>
			</g>
			<g>
				<path class="st1" d="M3165.9,968.2c-14,13-22.2,30.2-23.8,46.7c15.4,0.7,32.3-5.5,46.4-18.6s22.2-30.2,23.8-46.7
					C3196.9,948.9,3179.9,955.2,3165.9,968.2z"/>
			</g>
			<g>
				<path class="st1" d="M3172.5,1024c-17.4,5.5-31.7,17.6-40.2,32.3c12.6,8.1,29.6,10.5,47,5s31.7-17.6,40.2-32.3
					C3206.9,1020.9,3189.9,1018.6,3172.5,1024z"/>
			</g>
			<g>
				<path class="st1" d="M3145.7,1091.2c-13.8,4.3-24.8,15.5-31.1,29.6c10.5,8.8,24.2,12.1,38,7.8c13.8-4.3,24.8-15.5,31.1-29.6
					C3173.2,1090.2,3159.5,1086.8,3145.7,1091.2z"/>
			</g>
			<g>
				<path class="st1" d="M3122.1,995.3c-10.9-10.9-25.3-15.6-39.2-14.1c-0.8,14.7,4.3,29.7,15.2,40.6c10.9,10.9,25.3,15.6,39.2,14.1
					C3138,1021.2,3133,1006.3,3122.1,995.3z"/>
			</g>
			<g>
				<path class="st1" d="M3109.5,1043.5c-10.9-10.9-25.3-15.6-39.2-14.1c-0.8,14.7,4.3,29.7,15.2,40.6
					c10.9,10.9,25.3,15.6,39.2,14.1C3125.4,1069.3,3120.4,1054.4,3109.5,1043.5z"/>
			</g>
		</g>
		<g>
			<g>
				<path class="st5" d="M3037.1,1763.2c130.8-36.4,228.3-139.8,287-220c63.8-87.1,96.9-166.7,97.2-167.5l5.4,2.7
					c-0.3,0.8-33.7,80.9-97.9,168.7c-59.3,81.1-157.8,185.5-290.2,222.3L3037.1,1763.2z"/>
			</g>
			<g>
				<path class="st5" d="M3418.6,1345.7c-13.3,20.9-17.2,45.4-12.6,67.3c20.6-3.4,40.5-16.2,53.7-37.1s17.2-45.4,12.6-67.3
					C3451.7,1312,3431.8,1324.8,3418.6,1345.7z"/>
			</g>
			<g>
				<path class="st5" d="M3424.7,1429.8c-22.8,7-40.4,23.1-49.8,42.8c18.2,11.3,41.4,15,64.2,8s40.4-23.1,49.8-42.8
					C3470.7,1426.5,3447.4,1422.9,3424.7,1429.8z"/>
			</g>
			<g>
				<path class="st5" d="M3407.4,1504.9c-23.5-4.9-46.2,0.7-63,13.6c11.6,18.9,30.9,33.3,54.4,38.3c23.5,4.9,46.2-0.7,63-13.6
					C3450.2,1524.3,3430.9,1509.8,3407.4,1504.9z"/>
			</g>
			<g>
				<path class="st5" d="M3356.9,1574.2c-23.5-4.9-46.2,0.7-63,13.6c11.6,18.9,30.9,33.3,54.4,38.3s46.2-0.7,63-13.6
					C3399.8,1593.6,3380.4,1579.1,3356.9,1574.2z"/>
			</g>
			<g>
				<path class="st5" d="M3369.2,1461.2c0.5-23.1-7.6-44.5-20.6-59.8c-13.6,12.7-22.5,32.6-23,55.7c-0.5,23.1,7.6,44.6,20.6,59.8
					C3359.9,1504.1,3368.8,1484.2,3369.2,1461.2z"/>
			</g>
			<g>
				<path class="st5" d="M3316.6,1532.9c0.8-23.1-6.9-44.7-19.7-60.2c-13.8,12.4-23,32.2-23.8,55.2s6.9,44.7,19.7,60.2
					C3306.6,1575.6,3315.8,1555.9,3316.6,1532.9z"/>
			</g>
			<g>
				<path class="st5" d="M3274.7,1643.6c-8.7-5.4-18.6-6.4-27.3-3.4c1.9,9.6,7.5,18.4,16.1,23.9c8.7,5.4,18.6,6.4,27.3,3.4
					C3289,1657.9,3283.3,1649,3274.7,1643.6z"/>
			</g>
		</g>
		<path class="st1" d="M2798.1,1851.4c0,0-110.5-436.9-73.8-480.8c50.6-60.7,92.4,140.6,96.5,123.5c38.7-161.4,49-368,173.8-389.8
			c71-12.4-16.4,153.6-11.1,198.5c5.3,44.9,133.1-104.2,210.8-182.3c77.7-78.1,117.8-28.7,68.7,69.6
			c-47.5,95-201.1,198.8-169.4,211.1c31.7,12.3,223.9-110.3,247.4-57.9c28.9,64.3-259.5,151.8-232.3,166.2s164.9-33.1,161.2,16
			s-189,47.3-185.8,68.9c5.1,35,127.6-44.2,133,4.2c5.5,49.6-161.2,40.5-158.3,79.2c1.7,22.2,45.3,2.4,50.6,33.2
			c12,70.1-215.6,141.9-215.6,141.9L2798.1,1851.4z"/>
		<g>
			<path class="st2" d="M2746.9,1847.7c0,0,105.1-161.2,155.7-191.6c53.9-32.4,12.9,64.7,12.9,64.7s110.1-131.1,140.8-104.4
				c30.6,26.6,2.8,57.5,2.8,57.5s98.9-29.3,116.7,7c27.3,55.8-135.5,102-135.5,102s69.9-0.7,57,36.9
				C3077.9,1876.5,2746.9,1847.7,2746.9,1847.7z"/>
			<path class="st5" d="M3175.8,1680.8c-17.8-36.3-116.7-7-116.7-7s27.8-30.8-2.8-57.5s-118.7,53.1-118.7,53.1s9.2-65.7-57.1-7.8
				c-47.4,41.4-133.5,186.2-133.5,186.2L3175.8,1680.8z"/>
		</g>
		<g>
			<g>
				<g>
					<path class="st2" d="M2841.4,1449.3l-4.7-3.2c85.6-129.6,111.7-283.5,118.6-389.8c7.4-115.3-5.6-201.1-5.7-201.9l5.9-1.7
						c0.1,0.9,13.3,87.2,5.8,203.2C2954.3,1163.1,2927.9,1318.3,2841.4,1449.3z"/>
				</g>
				<g>
					<path class="st2" d="M2932.7,834.2c-0.2,26,8.9,47.6,23.3,60.5c14.6-18.6,24-43.8,24.2-69.8c0.2-26-8.9-47.6-23.3-60.5
						C2942.3,783,2932.9,808.2,2932.7,834.2z"/>
				</g>
				<g>
					<path class="st2" d="M2979.1,892.7c-14.6,23-20.6,48.9-18.2,71.1c20-5.7,40.2-21.1,54.8-44.1s20.6-48.9,18.2-71.1
						C3013.8,854.3,2993.6,869.7,2979.1,892.7z"/>
				</g>
				<g>
					<path class="st2" d="M3002.4,962.7c-21,14.6-36.2,36.6-43.1,59.4c18.5,5.1,40.9,0.9,61.9-13.7c21-14.6,36.2-36.6,43.1-59.4
						C3045.9,943.8,3023.4,948.1,3002.4,962.7z"/>
				</g>
				<g>
					<path class="st2" d="M2975.1,1084.8c-9.2,5.5-16.1,14.2-19.7,23.7c7.5,2.8,17,1.8,26.1-3.7c9.2-5.5,16.1-14.2,19.7-23.7
						C2993.7,1078.3,2984.2,1079.3,2975.1,1084.8z"/>
				</g>
				<g>
					<path class="st2" d="M2967.6,1130c-9.2,5.5-16.1,14.2-19.7,23.6c7.5,2.8,17,1.8,26.1-3.7s16.1-14.2,19.7-23.7
						C2986.2,1123.5,2976.8,1124.5,2967.6,1130z"/>
				</g>
				<g>
					<path class="st2" d="M2929.8,946.9c-16.9-9.6-36.7-9.5-54.3-1.6c2.9,19.5,13.5,36.8,30.4,46.4c16.9,9.6,36.7,9.5,54.3,1.6
						C2957.3,973.8,2946.7,956.5,2929.8,946.9z"/>
				</g>
				<g>
					<path class="st2" d="M2926.4,1015c-16.9-9.6-36.7-9.5-54.3-1.6c2.9,19.5,13.5,36.8,30.4,46.4c16.9,9.6,36.7,9.5,54.3,1.6
						C2953.9,1041.9,2943.4,1024.6,2926.4,1015z"/>
				</g>
				<g>
					<path class="st2" d="M2929.8,1112.6c-11-6.2-23.9-6.2-35.3-1c1.9,12.7,8.8,24,19.8,30.2s23.9,6.2,35.3,1
						C2947.7,1130.1,2940.8,1118.8,2929.8,1112.6z"/>
				</g>
			</g>
		</g>
	</g>
	<path class="st6" d="M871.8,861c0-0.5,0.3-1.1,0.6-1.7l-21-1.9c0,0,0,0.1,0,0.1c-1,17.6-11,73.7-7.7,88.8
		c3.8,17.4,41.2,73.1,41.2,73.1L901,995c0,0-25.2-39.9-29.6-53.1C867.1,928.6,871.4,865.5,871.8,861z"/>
	<g>
		<path class="st7" d="M635.5,1852.8V826.2h602.2v155H816.8v224.2h318.4v155H816.8v492.3H635.5z"/>
		<path class="st7" d="M1193.9,1852.8l310.3-1026.6h224.2l306,1025.7H1855l-77.9-280.6h-329.3l-83.5,281.5L1193.9,1852.8
			L1193.9,1852.8z M1490.7,1419.4h242.8l-121.7-426.6L1490.7,1419.4z"/>
		<path class="st7" d="M2885.3,1692.3c-20.1-1.3-39.3-6.4-57.6-15.4c-18.4-9-36.1-22.2-53.2-39.7c28.6-38.9,50.4-86.4,65.3-142.5
			c14.9-56.2,22.4-119.3,22.4-189.3c0-154.2-35.1-274.5-105.4-361c-70.3-86.5-167.3-129.7-291.2-129.7
			c-123.9,0-220.8,43.2-290.8,129.7c-70.1,86.5-105.1,206.8-105.1,361c0,153.3,35.2,273.4,105.7,360.3
			c70.5,86.9,167.2,130.4,290.2,130.4c38.9,0,74.3-4.2,106.3-12.5s62.1-21.2,90.3-38.8c30.3,37.6,61.5,64.9,93.5,82
			c32,17.1,52.5,31.4,94.8,31.4l35.3-5.7L2885.3,1692.3z M2674.9,1407.6c-3.2,25.4-8.2,46.4-15.1,63.1l0,0
			c-8.8,31.2-20.5,58.1-35.2,80.7c-36.3,55.7-89.5,83.6-159.5,83.6c-12.2,0-23.9-1-35.3-3c-52.6-8.2-93.8-35.1-123.6-80.9
			c-14.5-22.3-26.1-48.8-34.8-79.4l-0.4-0.6c-6.8-16.7-11.9-37.7-15.1-63.1c-3.2-25.4-4.8-55.2-4.8-89.4c0-23.5,0.8-45.8,2.3-66.9
			c4.5-71.5,18.2-129.6,41.3-174.2c0.5-0.9,1-1.9,1.5-2.8c0.1-0.3,0.3-0.6,0.5-0.9c2.6-4.8,5.2-9.5,8-14
			c21.5-34.8,49.6-59.1,84.1-72.9c0,0,0.1,0,0.1,0c1.4-0.5,2.7-1.1,4.1-1.6c21.8-8.2,46.1-12.3,72.8-12.3
			c71.3,0,124.8,28.8,160.5,86.5c9.3,15.1,17.4,32.1,24.3,51c13.9,37.5,22.7,82.3,26.5,134.5c1.8,23,2.7,47.4,2.7,73.3
			C2679.7,1352.4,2678.1,1382.2,2674.9,1407.6z"/>
	</g>
	<g>
		<path class="st8" d="M567.7,1852.8V826.2h602.2v155H749v224.2h318.4v155H749v492.3H567.7z"/>
		<path class="st8" d="M1126.1,1852.8l310.3-1026.6h224.2l306,1025.7h-179.4l-77.9-280.6h-329.3l-83.5,281.5L1126.1,1852.8
			L1126.1,1852.8z M1422.9,1419.4h242.8l-121.7-426.6L1422.9,1419.4z"/>
		<path class="st8" d="M2817.5,1692.3c-20.1-1.3-39.3-6.4-57.6-15.4c-18.4-9-36.1-22.2-53.2-39.7c28.6-38.9,50.4-86.4,65.3-142.5
			c14.9-56.2,22.4-119.3,22.4-189.3c0-154.2-35.1-274.5-105.4-361c-70.3-86.5-167.3-129.7-291.2-129.7
			c-123.9,0-220.8,43.2-290.8,129.7c-70.1,86.5-105.1,206.8-105.1,361c0,153.3,35.2,273.4,105.7,360.3
			c70.5,86.9,167.2,130.4,290.2,130.4c38.9,0,74.3-4.2,106.3-12.5s62.1-21.2,90.3-38.8c30.3,37.6,61.5,64.9,93.5,82
			c32,17.1,69.2,25.6,111.5,25.6h18.6L2817.5,1692.3z M2607,1407.6c-3.2,25.4-8.2,46.4-15.1,63.1l0,0c-8.8,31.2-20.5,58.1-35.2,80.7
			c-36.3,55.7-89.5,83.6-159.5,83.6c-12.2,0-23.9-1-35.3-3c-52.6-8.2-93.8-35.1-123.6-80.9c-14.5-22.3-26.1-48.8-34.8-79.4l-0.4-0.6
			c-6.8-16.7-11.9-37.7-15.1-63.1c-3.2-25.4-4.8-55.2-4.8-89.4c0-23.5,0.8-45.8,2.3-66.9c4.5-71.5,18.2-129.6,41.3-174.2
			c0.5-0.9,1-1.9,1.5-2.8c0.1-0.3,0.3-0.6,0.5-0.9c2.6-4.8,5.2-9.5,8-14c21.5-34.8,49.6-59.1,84.1-72.9c0,0,0.1,0,0.1,0
			c1.4-0.5,2.7-1.1,4.1-1.6c21.8-8.2,46.1-12.3,72.8-12.3c71.3,0,124.8,28.8,160.5,86.5c9.3,15.1,17.4,32.1,24.3,51
			c13.9,37.5,22.7,82.3,26.5,134.5c1.8,23,2.7,47.4,2.7,73.3C2611.8,1352.4,2610.2,1382.2,2607,1407.6z"/>
	</g>
	<path class="st9" d="M915.1,970.9c5-12.1,10.2-24.3,23.3-30.5c10.6-5,21.7-3.1,31.1,4c26.7,20,3.4,42.2,33.8,80.2
		c9.4,11.8,20.9,21.4,26.5,35.2c7.9,19.4-1.5,28.7-16.6,38c-72.3,44.4-110.1-46.8-108.8-67.6C905.3,1014.6,911.8,978.7,915.1,970.9z
		"/>
	<path class="st10" d="M1086.1,684.2l12.1-22.2l-11.4-22.6c-1.3-2.6,0.9-5.5,3.7-5l24.8,4.7l17.9-17.9c2-2,5.5-0.8,5.9,2l3.2,25.1
		l22.5,11.6c2.6,1.3,2.5,5-0.1,6.3l-22.8,10.9l-4,25c-0.5,2.8-4,3.9-5.9,1.8l-17.3-18.4l-25,3.9
		C1086.8,689.8,1084.7,686.7,1086.1,684.2z"/>
	<polygon class="st2" points="1253,378.6 1262.8,353.4 1290.3,351.6 1299.3,322.6 1329.1,329.8 1340.7,297.4 1368.9,300.6 
		1385.2,271.3 1374.1,265.1 1362,287 1332.1,283.6 1321,314.8 1290.7,307.5 1280.8,339.5 1253.9,341.3 1244.9,364.6 1227,362.1 
		1225.2,374.6 	"/>
	<polygon class="st11" points="2188.7,663.1 2168.9,635.8 2142.3,652.6 2121.5,626.6 2094.1,639.5 2075.4,622.5 2066.9,632 
		2091.9,654.7 2117.8,642.4 2139.4,669.5 2165.6,653 2183.6,677.7 	"/>
	<polygon class="st11" points="1003.6,502.3 1010.4,469.3 980,461 985.2,428.1 957.2,416.6 957.1,391.3 944.3,391.4 944.5,425.2 
		971,436.1 965.6,470.3 995.5,478.4 989.4,508.4 	"/>
	<polygon class="st10" points="733,667.6 745.9,691.6 773.6,690 786.1,717.9 815.1,707.2 830.6,738.1 858.6,731.5 878.4,758.9 
		868,766.4 853.2,745.9 823.7,752.9 808.8,723.2 779.3,734.1 765.5,703.3 738.5,704.8 726.5,682.5 709,687.3 705.7,674.9 	"/>
	<path class="st9" d="M915.1,970.9c5-12.1,10.2-24.3,23.3-30.5c10.6-5,21.7-3.1,31.1,4c26.7,20,3.4,42.2,33.8,80.2
		c9.4,11.8,20.9,21.4,26.5,35.2c7.9,19.4-1.5,28.7-16.6,38c-72.3,44.4-110.1-46.8-108.8-67.6C905.3,1014.6,911.8,978.7,915.1,970.9z
		"/>
	<path class="st6" d="M764.1,1297.1c-5.8,15.4-8.9,30.3-9.2,32.1c-0.1,0.9,1.1,5.1,1,6c-11.8,16-28.6,19.5-43.1,20.6
		c7.4-7.2,18.2-14,18.7-16.3c0.8-3.6,5.3-19.8,7.5-42.2C748,1301.3,754.1,1298.1,764.1,1297.1z"/>
	<path class="st9" d="M930.5,1124.4l25.8,72.8c0,0-41.5,7.8-57.1,10.7c-15.5,2.8-102.3,6.6-104.5,8.2c-1.6,1.1-19.5,59.1-27.6,91.1
		c-9.1,2-24.6-0.4-32.9-3.3c4.5-45.7,20.6-118.2,25.8-126.1C768.6,1164.9,930.5,1124.4,930.5,1124.4z"/>
	<path class="st6" d="M829.6,1329c-2.9,16.3-3,31.4-3,33.3c0,0.9,2,4.8,2.1,5.7c-8.5,17.9-24.5,24.6-38.5,28.3
		c5.9-8.4,15.3-17.2,15.3-19.5c0.1-3.7,1.5-20.4-0.6-42.8C814.6,1336.2,820,1331.8,829.6,1329z"/>
	<path class="st12" d="M960.7,1128.2l10,17.1c15.3,26.1,3.6,59.6-24.6,70.5c-0.2,0.1-0.3,0.1-0.5,0.2
		c-14.7,5.7-99.2,25.7-101.1,27.6c-1.4,1.4-8.1,61.7-10,94.6c-8.5,3.7-24.3,4.2-32.9,3c-4.2-45.8-1.9-119.9,1.7-128.7
		C809.2,1198.4,960.7,1128.2,960.7,1128.2z"/>
	<path class="st9" d="M825.3,1362.7c2.3-2.5,10.5,11.2,12.6,14.1c2.3,3.3,1.7,5.8,1.4,6.3c-0.7,1.3-44.3,27-54.9,28.8
		c-1,0.2-2.7-0.5-3.2-0.8c-4.2-3.7,15-30.8,23.5-34.4C810.2,1374.4,815.2,1373.9,825.3,1362.7z"/>
	<path class="st13" d="M893.6,1088.6c-0.9-11.1-2.5-41.1-2-44.8c-3.4-11.5-15.6-28.7-18.2-33.5c0,0,16.6-18.8,29-18.7
		c0,0,13.1,16.6,22.9,21.7c0.1,0,3.5,1.5,4.9,1.5c9.4-0.1,42.3-1.1,48.4,0.8l-3.5,50.8c-1.8,2.9-3.9,61.3-7.5,66.1
		c-3.6,4.8-56.5,26.7-65.3,21C901.9,1153.2,895.5,1111.1,893.6,1088.6z"/>
	<path class="st6" d="M951.6,996.1c0,0-3.4,17.6-2.7,24.6c0.7,6.9-2.6,29.3-17.3,29.4c-14.7,0.1-2.8-28.5-1.4-35.3
		c1.4-6.8,1.7-27.9,1.7-27.9L951.6,996.1z"/>
	<path class="st14" d="M931.6,997.5c0.2-5.8,0.3-10.6,0.3-10.6l19.7,9.2c0,0-0.7,3.6-1.4,8.2C941.6,1006,935.3,1002.8,931.6,997.5z"
		/>
	<path class="st6" d="M958.8,947.4c0,0,7.6,4.2,10.4,13.3c2.8,9.1-0.4,32.7-20,38.4c-19.6,5.7-28.1-13-24.1-27.6
		C929.1,957,937.9,938.5,958.8,947.4z"/>
	<path class="st6" d="M922.6,966c0.4,3.9,2.5,6.9,4.8,6.7c2.3-0.2,3.8-3.6,3.4-7.5s-2.5-6.9-4.8-6.7
		C923.8,958.7,922.2,962,922.6,966z"/>
	<path class="st9" d="M753.5,1329.7c2.7-2,8.2,13,9.7,16.2c1.7,3.7,0.5,6,0.2,6.4c-1,1.2-48.6,18.2-59.3,18c-1,0-2.6-1-3-1.4
		c-3.4-4.4,20.5-27.5,29.6-29.4C736.6,1338.3,741.5,1338.8,753.5,1329.7z"/>
	<path class="st9" d="M956.5,946.3c0,0,3.6,26.3,12.1,31c8.5,4.8,4.9,16.4,4.9,16.4s7.7-27.1,1-35.8
		C967.8,949.2,956.5,946.3,956.5,946.3z"/>
	<path class="st6" d="M963.5,981.1c-2.3,3.4-2.3,7.5,0,9s6.1,0,8.4-3.4c2.3-3.4,2.3-7.5,0-9C969.6,976.1,965.8,977.7,963.5,981.1z"
		/>
	<path class="st15" d="M934.9,982.5l13.8,3.5c0,0-1.7,5.3-7.8,3.9C933.5,988.3,934.9,982.5,934.9,982.5z"/>
	<path class="st6" d="M1006,1108.2c-3.5-24.8-8.7-58.7-8.7-58.7l-27.3,7.6c0,0,7.1,31,11.6,55.7L1006,1108.2z"/>
	<polygon class="st10" points="2429.1,671.7 2424.7,638.5 2400,638.6 2394.5,606 2370.6,602.5 2363.3,578.5 2353.9,582 2363.6,614 
		2386.3,617.3 2392,651.3 2416.3,651.2 2420.3,681.3 	"/>
	<path class="st14" d="M2581.9,788.4l-0.1-15.6l-12.9-8.7c-1.5-1-1.2-3.2,0.5-3.8l14.7-4.9l4.3-15c0.5-1.7,2.7-2.1,3.8-0.7l9.2,12.5
		l15.5-0.5c1.8-0.1,2.8,1.9,1.8,3.4l-9,12.7l5.3,14.6c0.6,1.7-1,3.3-2.6,2.8l-14.8-4.7l-12.3,9.6
		C2584,791.1,2581.9,790.1,2581.9,788.4z"/>
	<g>
		<path class="st13" d="M1783.1,473.7L1639,509.3c-6.3,1.5-12.6-2.3-14.1-8.5l-23-93c-1.6-6.3,2.3-12.6,8.5-14.1l144.1-35.5
			c6.3-1.5,12.6,2.3,14.1,8.5l23,93C1793.1,465.9,1789.3,472.2,1783.1,473.7z"/>
		<polygon class="st13" points="1618.3,452.4 1581.6,515.6 1639.9,488.6 		"/>
		<g>
			<path class="st15" d="M1661.3,433.9l14.9-4.1c0,0,15.2-18.9,14.6-24c-0.7-5.1-6.4-14.8-3.9-16.9c2.6-2.1,8.5-4.7,14.1,0.9
				c4.1,4,6.1,22.1,8.2,22.8c1.3,0.5,9.9-1.6,16.2-3.3c4.1-1.1,8.5,0.2,11.3,3.4l0,0c1.9,2.1,2.1,5.3,0.4,7.7l-2.6,3.6l3.5,2.8
				c2.6,2.1,3,5.9,1,8.5l-2.1,2.7l2.3,1.6c3,2,3.5,6.3,1.2,9l-1.9,2.2l0.5,0.6c2.2,2.3,2.2,5.9,0,8.2l-1.9,2.1l-39.6,10.8
				c-3.7,1-7.6,1.3-11.4,0.7l-14.6,1.5c-1.6,0.2-3-0.8-3.4-2.4l-9-34.8C1658.6,436,1659.6,434.3,1661.3,433.9z"/>
		</g>
	</g>
	<path class="st15" d="M1490.8,599l16.7-5.3c0,0,1.6,6.5-5.7,9C1493,605.8,1490.8,599,1490.8,599z"/>
	<path class="st6" d="M1066.4,1202.7c-0.3-0.6-0.8-0.6-1.4-0.7c-5.5-0.2-10.9-0.4-16.3-1.2c-0.9-0.1-1.8-0.3-2.6-0.7
		c-1.5-0.6-3-0.6-4.5-0.2c-0.8,0.2-1.7,0.3-2.5,0.3c-2.8,0-10.6-2.7-14.6-3.4c-0.9-0.2-1.7-0.9-1.9-1.8c-4-15.7-12.5-50.8-13.5-62.3
		c-1.4-14.8-11.6-81.4-11.6-81.4l-27.3,7.6c0,0,11.2,49.2,14.3,73c2.4,18.4,20.8,57.5,26.6,68.7c2.8,8.4,9.1,8.6,10.6,8.8
		c0.8,0.1,1.6,0.5,2.2,1.2c1,1.2,2.1,2.2,3.4,3c1,0.6,1.7,1.4,2.3,2.3c1.2,1.7,2.2,3.5,3.2,5.2c0.7,1.2,1.4,1.6,2.4,1.3
		c1.1-0.3,1.6-1.1,1.6-2.4c0-1.9-0.7-3.7-1.6-5.4c-0.9-1.6-0.8-2.5,0.2-3.9c0.6-0.8,1.3-1.6,2.1-2.3c0.8-0.7,1.7-1.2,2.8-1
		c2,0.5,3.9,0.9,5.9,1.1l1.7,0.3c0.1,0,0.9,0.2,0.9,0.2c0.1,0,3,0.3,4,0.4c0.8,0,2.1,0.1,3.2,0.1c1,0.1,3.1-0.5,3.2-0.5
		c1,0,1.8-0.4,2.6-1c0.3-0.3,0.6-0.6,0.4-1c-0.1-0.4-0.5-0.6-0.9-0.7c-0.7-0.1-4.1-0.5-4-0.7c1,0,4.2-0.1,5.2-0.1
		c1.4,0,2.5-0.5,3.5-1.5C1066.2,1203.7,1066.6,1203.3,1066.4,1202.7z"/>
	<path class="st13" d="M978.9,1015.4c13.5-2.5,24.7,58,24.7,58s-30,8.4-37.7,4c0,0-8.7-38.7-11.8-37.3L978.9,1015.4z"/>
	<g>
		<path class="st11" d="M2335.2,1516.6l-11.5,32.7c0,0,28.6,7.4,29.3,7.6s7-32.2,7-32.2L2335.2,1516.6z"/>
		<path class="st11" d="M2300.2,1786.9c0,0,21.1,25.9,21.2,28.1s-0.8,26.8-3.4,29.1s-9.9,3.8-7.5,6.4c1.8,1.9,15.6,1.5,24.7,1
			c2.7-0.2,6-21.9,7.1-25.1c1.5-4.6,5.3-15.1,3.9-18.3c-0.7-1.6-3.9-4.8-8.5-7.8c-4.8-3.2-23.2-29.4-23.2-29.4L2300.2,1786.9z"/>
		<path class="st7" d="M2337.4,1800c0,0-14.2,40.8-19.7,42.7c-1.5,0.5-8.5,1.8-9.9,5c-0.4,1,0,4.2,0,4.2h29.5c0,0,3.7-18,5.2-25.9
			c0,0,7.8-19.3,6.9-21C2348.6,1803.3,2337.4,1800,2337.4,1800z"/>
		<path class="st6" d="M2173.8,1799.3c0,0-17.2,24.8-15.7,32.6c0.8,4.2,4.4,9.7,2.4,13.7c-2.1,3.9-4.4,4.9-4.4,4.9l-53.7,0.9
			c-2.9,0.1-1-1.9,1.4-3.6c3.9-2.9,7-4.8,19.3-10.9c0.8-0.4,3.7-2.3,4.8-3c2.7-1.7,5.4-4.3,7.7-6.9c3.9-4.4,20.8-40.1,20.8-40.1
			L2173.8,1799.3z"/>
		<path class="st13" d="M2236.1,1646.3c0,0,21.3,24.9,26.8,28.8s57.6,102.2,57.6,102.2l-18.6,13.9c0,0-46.7-59.5-68.6-91.3
			c-18.5-26.9-11.7-25.2-22.6-41.6c-6-9-4.6-21.2,3.3-28.5c1-0.9,2.1-1.9,3.2-2.8c16.1-13.7,126.7-29.2,126.7-29.2l70.7,7.1
			c0,0-57.8,41.4-59.9,42.5c-2.2,1.1-79.8,12.7-81.4,12.7C2271.7,1660.1,2236.1,1646.3,2236.1,1646.3z"/>
		<path class="st13" d="M2421.8,1605.6c0,0,12.1,37.2-6.1,54.6c-18.2,17.4-126.3,15.4-161.9,15.4c0,0-14.6,40.8-16.2,47.4
			c-1.6,6.6-72.2,92-72.2,92l-19.4-12.7c0,0,76-151,81.9-157.6s90.6-33.1,111.6-39.1C2360.6,1599.5,2421.8,1605.6,2421.8,1605.6z"/>
		<path class="st9" d="M2341.1,1484.7c13.3-41.1,28.1-39.3,28.1-39.3l-11.5,86.4c-8.2-2.3-18.8-7.4-27-9.7
			C2333.4,1509,2337.8,1494.8,2341.1,1484.7z"/>
		<path class="st12" d="M2403.1,1437.9c0,0,24.4-1.6,34.1,9.2c9.7,10.8-21.4,96.1-23.2,109.8c-1.8,13.7,8.9,50.2,8.9,50.2
			s-57.4,11.8-73.8,0.7c0,0-1.8-98.7,0-108.5s16.4-49.7,19.9-53.6C2372.6,1441.8,2403.1,1437.9,2403.1,1437.9z"/>
		<path class="st13" d="M2253.9,1490.2h78.5c2,0,4.1,1.7,4.7,3.7l33.1,106.7c0.6,2-0.5,3.7-2.5,3.7h-78.5c-2,0-4.1-1.7-4.7-3.7
			l-33.1-106.7C2250.8,1491.8,2251.9,1490.2,2253.9,1490.2z"/>
		<path class="st15" d="M2299.8,1524.4c0.8,3.2-0.6,6.3-3.1,7c-2.5,0.7-5.3-1.3-6.1-4.5c-0.8-3.2,0.6-6.3,3.1-7
			C2296.3,1519.2,2299,1521.2,2299.8,1524.4z"/>
		<path class="st7" d="M2124.2,1835.3c16.3,4.3,28.4,1.4,35.1-1.4c1.7,5,4.1,11.3,2.8,15c-1.5,4.5-3.6,5.5-5.5,5.5
			c-14.9,0.4-54.6,0.9-66,1.1c-1.6,0-2.5-1.9-1.4-3.1C2092,1848.9,2122.9,1836.1,2124.2,1835.3z"/>
		<g>
			<path class="st16" d="M2361.1,1559.8c-0.9-0.7-1.8-2.9-8.6-8.4c-2-1.6-5.5-2.1-5.5-2.1s-4.4-0.6-4.8,0.4c-0.4,1,0.2,2.2,0.9,2.7
				s2.5,0.4,3.3,0.9s1.6,3.1,1.5,4.1s-12.9-1.2-12.9-1.2s-3.7-0.8-4.9-1.2c-1-0.3-4-1.5-4-1.5s-4.3-1.4-4.7-0.1
				c-0.2,0.8,3.3,3.2,7,4.9c4,1.8,8.3,3,8.2,3.5c-0.2,1-7.2,0-7.2,0s-3.2-1.3-4.8-1.4c-1.9-1.1-5.3-2-5.7-0.3
				c-0.1,0.3,4.3,2.9,4.3,2.9s3.1,1.1,4.5,1.8c2.6,1.1,6.6,1.5,8.4,2.1c1.5,0.5,0.9,0.8,0.9,1c0.1,0.1-2-0.2-4.8-0.7
				c-1.4-0.2-3.1-0.2-4.7-0.7c-1.5-0.5-3.6-0.9-4.9-1.1c-3.7-0.5-3.3,1.9,0,3c1.3,0.4,2.7,0.8,4.1,1.3c5.5,1.7,10.8,2,10.8,2.6
				c0,0.8-9.6-0.4-9.6-0.4s-5.4,0.9-0.4,2.4c5.7,1.8,10.4,2,10.6,2c1.4,0,6.4,1.4,11.3,0.5c3.6-0.7,8.7-1.8,11.2-2.3L2361.1,1559.8z
				"/>
			<path class="st6" d="M2443.5,1507.7l-24.6,5.3c0,0,2.7,21.1,2.6,23.5c0,0-42.7,18-60.4,23.3l-0.8,14.8c3.5-0.9,6.3-2,7.9-2.4
				c3.4-0.8,56.9-12.1,56.9-12.1s21.2-5.5,22.2-9.3C2448.4,1547.1,2443.5,1507.7,2443.5,1507.7z"/>
		</g>
		<path class="st17" d="M2451,1528.9c0,0,0.7-57.6-4.6-71.5c-5.4-13.9-25.4-22.8-35.9-14.8c-10.4,8,6,86.3,6,86.3L2451,1528.9
			L2451,1528.9z"/>
		<path class="st18" d="M2340.9,1387c0.3-27.3,21.2-50.1,47.8-40.7c6,2.1,14.4,6.9,18.9,11.4c12.3,12.1,17.3,28.6,29.9,40.3
			c-3.5,3.6-7.8,7.5-13.1,11.5l-8-8.1l3.9,11c-15.5,10.6-38,20.7-70.2,25.2C2343.6,1419.5,2340.7,1401.6,2340.9,1387z"/>
		<path class="st6" d="M2394.9,1404.5c0,0,0.1,0.7,0.4,2c1.1,6,5.3,26,8.1,31.4c3.4,6.6-11.7,27.8-26.3,25.2
			c-4.3-0.8,3.7-19.4,3.3-21.4c-0.7-3.8-1.7-8.9-2.8-14.2c-0.6-3-1.2-6-1.7-8.9c-1.6-8.1-2.8-14.7-2.8-14.7L2394.9,1404.5z"/>
		<path class="st14" d="M2395.3,1406.5c-0.2-1.3-0.4-2-0.4-2l-21.8-0.6c0,0,1.3,6.6,2.8,14.7c0.5,2.8,1.1,5.8,1.7,8.8
			c3.4-0.5,6.9-2.2,10.4-5.4c3.9-3.4,6.4-7.6,7.9-12C2395.7,1408.6,2395.5,1407.4,2395.3,1406.5z"/>
		<path class="st6" d="M2372.2,1358c0,0,10-2.7,17.6,4.8s18.1,32.7,4.3,49.2c-13.9,16.6-31.8,2.7-36.5-14
			C2352.8,1381.3,2349,1360.8,2372.2,1358z"/>
		<path class="st6" d="M2352.8,1398.5c2.4,3.5,5.9,5.1,7.8,3.6c1.9-1.5,1.4-5.5-1-9c-2.4-3.5-5.9-5.1-7.8-3.6
			S2350.4,1395,2352.8,1398.5z"/>
		<path class="st18" d="M2370.7,1355.3c0,0,17.1,22.9,27,22.6s13,12.8,13,12.8s-7.8-30-18.2-34.4
			C2382,1351.8,2370.7,1355.3,2370.7,1355.3z"/>
		<path class="st6" d="M2396,1384.6c-0.2,4.5,2,8.4,4.8,8.5s5.3-3.4,5.4-7.9c0.2-4.5-2-8.4-4.8-8.5S2396.2,1380.1,2396,1384.6z"/>
		<path class="st15" d="M2374.2,1407.5l12.4-4.5c0,0,1.4,4.9-4,7C2376,1412.6,2374.2,1407.5,2374.2,1407.5z"/>
		<path class="st6" d="M2276.4,1551.1l-1.9,16.3c-0.1,0-0.2-0.1-0.3-0.2c-2.5-1.5-4.8-3.5-6.6-5.8l-12.3-15.6l2.1-13.4
			c0,0,9.9-3.9,11.3-3.3s-4.9,5-4.9,5s5.1-2,5.6-0.8s-3.9,4.9-3.9,4.9L2276.4,1551.1z"/>
		<path class="st1" d="M2265.4,1538.3c-0.3,0.7,9.7,31.3,9.7,31.3s8.4-14.9,8.8-15.7c0.4-0.7-9.8-13.6-9.8-13.6L2265.4,1538.3z"/>
	</g>
	<g>
		<path class="st6" d="M1555.4,1292.7c0,4.5-1.7,8.2-3.8,8.2c-2.1,0-3.8-3.7-3.8-8.2s1.7-8.2,3.8-8.2
			C1553.7,1284.4,1555.4,1288.1,1555.4,1292.7z"/>
		<path class="st6" d="M1591.1,1825.1c-1-7.1-1.3-17.9-1.2-30.5h-24.8c2.6,17.8,4.6,31.6,4.6,31.6l-0.6,5.6l0,16.6h54.2
			c0,0-11.5-5.2-27.6-15.3C1594.5,1832.3,1591.8,1829.9,1591.1,1825.1z"/>
		<path class="st6" d="M1485.5,1820.9l7.2-20.6h-18.8c-1,13.2-1.3,22.2-1.3,22.2l-4.8,13.6l-4.9,16.1c0,0,16,4.1,24.4-0.5l-0.9-16
			L1485.5,1820.9z"/>
		<path class="st13" d="M1583.3,1372.6c-6.5-8.9-33.5-34.8-36.5-34.8c-8.7,0.2-37.4,0.2-43,3l0.3,49.3c0.9,4.1,20.7,68.6,19.6,82.7
			l0.1,0.1c16.6,16,42.8,14.8,57.9-2.8l0,0c0,0-0.1-19.5,2.3-37.4C1587.6,1404.8,1599.5,1394.8,1583.3,1372.6z"/>
		<path class="st6" d="M1538,1310.1c0,0,0.8,18.2-0.9,25.1c-1.6,6.9-3.8,7.4,10.2,9.5c5.5,0.8,10.8,2.1,10.8,2.1s-1.4-10.1-1.7-14.4
			c-0.4-7,1.6-28.8,1.6-28.8L1538,1310.1z"/>
		<path class="st14" d="M1548.7,1319.1c2.9,1.6,5.6,2.5,8.1,2.9c0.5-8.6,1.4-18.4,1.4-18.4l-19.2,6.2
			C1541.1,1313.5,1544.3,1316.8,1548.7,1319.1z"/>
		<path class="st19" d="M1486.4,1835.5c-7.4,3.3-15.4,1.3-18.6,0.3l-1.1,2.9l-4.1,13.6c0,0,16.2,4,24.7-0.6L1486.4,1835.5z"/>
		<path class="st19" d="M1568.6,1852.5h56.3c2.1-0.2,2.6-1.9,1.9-2.9c-1.5-2.2-8.1-3.8-15.4-7.2c-12.9,1.4-40.1-7.6-42.2-10.6
			C1567.9,1837.8,1567.4,1852.2,1568.6,1852.5z"/>
		<path class="st17" d="M1564.3,1473.7l-33,234.8l-30.1,108.3h-32.7c0,0,7.6-87.2,23.8-118.1c0,0,7.1-82.8,14.2-133.4
			c1.1-7.6-4.2-27.2-2.8-32.3c10.5-39,19.8-60.2,19.8-60.2L1564.3,1473.7z"/>
		<path class="st20" d="M1543.9,1575.2l7.6,90.2c0,0-7.8,51.5-2.4,85.7c5.4,34.2,12.5,65.6,12.5,65.6h30.1l6-170.3
			c0,0,11.6-92.5,7.6-117.6s-23.5-58.7-23.5-58.7l-48.9,2.9c0,0-11.2,45.2-9,60.7C1525.3,1545.1,1543.9,1575.2,1543.9,1575.2z"/>
		<path class="st18" d="M1534.4,1367c14.3-12.4,19.6-39.9,10.3-56.2c6.5-8.4,10.6-6.9,9.2-17.4c-2.8-20.6,25.9-33.1,4.4-38.6
			c-21.7-4.3-39.7,9-49.6,22.2c-4.5,6-10,11.1-16.6,14.7c-13.1,7.2-20,24.4-13,42.4c-10.5,5.9-19.6,22.9-12.7,37
			c1.7,3.4,5,7.4,5.1,8.3c-0.2-1.2-9.8,30.3,26,41C1533.9,1431.5,1541.4,1396.5,1534.4,1367z"/>
		<path class="st18" d="M1523.9,1276.6c-4.2,17.4,18.6,30.1,36.7,30.5c11.8,0.3,17.2-0.9,19.1-13.3c3.1-20.1-5.2-32.3-16.8-37.4
			C1548,1249.8,1527.4,1262.2,1523.9,1276.6z"/>
		<path class="st6" d="M1550.5,1264.8c0,0-7.9,2.7-12.2,10.7c-4.2,8-2.1,33.8,15.5,42.2s25.7-10.8,24.5-25
			C1577,1278.6,1571.9,1260,1550.5,1264.8z"/>
		<path class="st15" d="M1561.5,1304.4l12.5-0.2c0,0-0.2,4.8-5.7,5.1C1561.6,1309.6,1561.5,1304.4,1561.5,1304.4z"/>
		<path class="st18" d="M1532.1,1295c-2.6-13.3-1.6-23.4,7.8-28.2s17.5-9.7,26-0.9l1.9,1.1c0,0-15.9,4.4-16.8,12.9
			c-0.9,8.5-9.4,18.5-8.1,22.7c1.3,4.2,2.8,12.4,2.8,12.4l-3.5-2.9C1542.2,1312.1,1534.7,1308.3,1532.1,1295z"/>
		<path class="st6" d="M1548.5,1289.9c1.3,3.7,0.3,7.3-2.2,8.2c-2.6,0.9-5.7-1.4-7-5.1c-1.3-3.7-0.3-7.3,2.2-8.2
			C1544,1284,1547.2,1286.3,1548.5,1289.9z"/>
		<path class="st6" d="M1684.2,1396.6c0.9-2.6-11.5-4.6-12.2-7.2c-0.7-2.6,15.7-2.8,16.3-5.1c1.1-4.2-17.9-0.9-17.6-2.8
			s19.8-6.3,17.7-9.7c-2.1-3.4-19.7,6.6-20.2,4.4c-0.5-2.3,17.2-7.8,16.9-12.8c-0.2-2.7-29.1,13.3-32.4,11.9
			c-3.3-1.4,3.6-14,0.9-15.9c-2.7-1.9-10.3,25.5-12.2,26.4c-1.8,0.9-40.9,23.2-54.8,26.7c-1.7-4.7-5.3-10.9-6.8-15.3
			c-7.8,5.6-13.6,8.3-21.6,13.4c5.8,14.6,14.1,30.6,18.2,32.4c12.4,5.6,60.2-34.1,69.7-40.8c9.6-6.8,15-4.6,21.5-6.7
			C1674.1,1393.3,1683.3,1399.1,1684.2,1396.6z"/>
		<path class="st13" d="M1540,1368.8c-3.7,15.2,16,49.1,16,49.1s28.1-13.2,33-18.9c0,0-19.1-32.9-20.3-34.9
			c-5.7-9.1-13.3-9.1-18.3-8.5C1546.3,1356,1540,1368.8,1540,1368.8z"/>
	</g>
	<g>
		<path class="st9" d="M125.7,1857.5L125.7,1857.5c0,3.3,5.4,5.9,12,5.9h2995.1c6.6,0,12-2.6,12-5.9l0,0c0-3.3-5.4-5.9-12-5.9H137.7
			C131.1,1851.6,125.7,1854.2,125.7,1857.5z"/>
	</g>
	<g>
		<path class="st21" d="M1607.5,594.5c-0.2,0.6-1.5,4.9-3.6,11.3l21.7,4.4c0.2-3.5,0.4-6.5,0.7-8.7c1.8-15.1,8.9-19.2,12.5-27.5
			c3.6-8.4,17.8-13.7,16-16.5s-14.9,8.7-18.1,7.4c-3.2-1.2,11.3-18.5,9.5-20.8c-3.2-4.2-16.9,18.1-18.5,16.3s11.4-25.5,6.2-25.8
			c-5.2-0.3-11,25.6-13.7,24.4s7.6-23.8,2.3-27.2c-2.8-1.8-12.8,40.4-17.2,42.8s-10.7-14.2-14.9-12.8
			C1586.3,563.2,1608.2,591.8,1607.5,594.5z"/>
		<path class="st21" d="M1405.3,504.8c-0.1,0.6-0.6,5.1-1.4,11.8l-21.6-5c1.3-3.3,2.3-6.1,2.9-8.2c4.6-14.5-0.2-21.1,0-30.2
			c0.1-9.1-10.6-19.8-7.8-21.6c2.8-1.9,10,14,13.4,14.2s-2.6-21.5-0.1-22.9c4.7-2.5,7.9,23.5,10.2,22.5s0.1-27.9,5-26
			c4.9,1.9-0.5,27.8,2.4,27.9c3,0.1,2.9-24.8,9.1-25.8c3.3-0.5-5,42-2,46.1c3,4,15.6-8.5,18.9-5.5
			C1437.5,485,1405.7,502.1,1405.3,504.8z"/>
		<path class="st13" d="M1628.2,603.7c0,0-25.9-6.2-26.1-4.1c-5.4,45.5-7.9,62-8.8,62.5c-3.1,1.6-44.7-36.4-52.1-39
			c-3.5-1.2-7.4-1-11.1-0.9c-8.8,0.3-10.6,0.3-10.6,0.3c-0.3,0-0.3,0-0.3,0l0.1,8.3c9.9,8.9,32.7,144.3,34.6,144.2
			c2.1-0.1,47.1,11.2,46.3,7.4c-0.1-0.6-30.5-25.5-39.1-61.3c-2.9-12-4.3-25-5.9-36.3c10,5,49,24.2,55.2,21.7
			C1629.6,698.6,1628.2,603.7,1628.2,603.7z"/>
		<path class="st6" d="M1705.6,844.1c0,0,41.8,32.8,43.2,38.6c2,8.4,40.3-2.6,31.1-4.3c-2.1-0.4-8.9-2.1-9.5-2.4
			c-3-1.6-40.2-46.4-40.2-46.4L1705.6,844.1z"/>
		<path class="st13" d="M1797.9,878.3l-26.7-2.2c0,0-7.6,6.3-22.3,6.6c0,0-2.3,6.7-1.2,14.5c0.2,1.3,0.4,5.4,1.8,5.3
			c4.9-0.3,18.1-3.6,33.1-6.6c0,0,20.1-4.3,31.8-11.2C1825.9,877.8,1797.9,878.3,1797.9,878.3z"/>
		<path class="st12" d="M1518.3,761.9c0,0,30.6,5.2,64.5-2.8c39.2-9.2,82.5-17.7,95.2-10.3c10.2,5.9,74.1,102.4,74.1,102.4l-24.7,18
			l-70.3-78.7c0,0-89.7,33.1-109.8,29.4C1501.4,811.6,1500.8,775,1518.3,761.9z"/>
		<path class="st6" d="M1614,908.8c0,0-1.9,50.6-3,59.2c-1.2,8.5,21.5,34.2,18.6,25.3c-0.7-2.1-2.4-8.9-2.4-9.5
			c0-3.4,8.4-61.1,8.4-61.1L1614,908.8z"/>
		<path class="st13" d="M1644,1011.6l-16.7-27.2c0,0-9.2-3.7-16.4-16.5c0,0-7,1.1-13.4,5.8c-1.1,0.8-8.6,6.3-8.1,7.5
			c1.9,4.6,12.1,14.6,23.2,25.5c0,0,15.8,12.7,27.4,19.7C1651.8,1033.4,1644,1011.6,1644,1011.6z"/>
		<path class="st22" d="M1663.6,809c-10.7-14.3-97.1-27.8-97.1-27.8l-24.1-46.3l-53.3,32.9c0,0,5.3,42.4,9.3,53.7
			c5.3,15.1,41.1,15.9,63,15.6c20.1-0.2,56.9,3.9,56.9,3.9l-12.4,109.7c0,0,24.4,5.6,31.3,4.7C1638,955.3,1677,826.8,1663.6,809z"/>
		<path class="st7" d="M1519.5,622.5l-30.1,1.7c0,0-0.7,0.2-0.9,0.3c-2.4,0.5-0.2,88.1,2,120.8c2.2,32.7,6.6,46.5,6.6,46.5
			s40.8-7.2,53.3-12.1c5.2-2,17.8-17.7,17.8-17.7s-12.8-17.3-19.3-45.3c-5-21.6-11.1-60-14.7-68
			C1526.1,630.2,1519.5,622.5,1519.5,622.5z"/>
		<path class="st6" d="M1490.3,597.7l-0.8,26.5c0,0,19.5,33.5,29.5,28.9c8.4-3.9,0.9-29.4,0.9-29.4s-1.4-5.8-3.5-12.6
			c-1.4-4.7-2.6-9.8-2.5-13.5C1514.1,588.5,1490.3,597.7,1490.3,597.7z"/>
		<path class="st14" d="M1513.9,597.5c0.2-9.1-23.6,0.1-23.6,0.1l-0.1,2.6c0.8,1.2,1.7,2.2,2.7,3c6.4,5.2,15.7,7.5,23.2,6.7
			C1514.8,605.6,1513.8,601,1513.9,597.5z"/>
		<g>
			<path class="st18" d="M1513.5,537.1c0,0,9.9,15,10.7,27.5s-1.9,21.2-1.9,21.2l-31.8-38L1513.5,537.1z"/>
			<path class="st11" d="M1527.5,562.1c0.4,4.4-1.3,8.2-3.8,8.5c-2.6,0.3-5-3.1-5.4-7.5c-0.4-4.4,1.3-8.2,3.8-8.5
				C1524.6,554.3,1527,557.7,1527.5,562.1z"/>
			<path class="st6" d="M1480.2,553.8c-0.7-0.2-0.7,36.5,10,45.1c10.6,8.6,29.1,9.4,34.5,0.7c6-9.6,0.3-48.2-15.5-56.4
				C1493.3,535,1480.2,553.8,1480.2,553.8z"/>
			<path class="st18" d="M1477.4,531.1c-8.1,7.1-12,12.3-17.5,24.9c-6.7,15.5,6.6,31.6,17.8,38s12.2,14.1,12.2,14.1l0.5-4.8
				c0.2-1.7,0.2-3.2-0.1-4.4c-0.3-1.4-1-2.6-1.6-3.9c-0.9-2-4-9-5.2-10.9c-3.2-4.9-3.8-5.9-2.2-10.5c1.2-3.6-0.2-11.4,1.7-17.3
				l15.1-3.3c0,0,9.4-2.3,14.2-7.8C1525.9,529.7,1498.8,512,1477.4,531.1z"/>
			<path class="st6" d="M1484.8,577.8c1.9,4,1.5,8.2-0.9,9.2c-2.3,1.1-5.7-1.3-7.6-5.3s-1.5-8.2,0.9-9.2
				C1479.6,571.4,1483,573.8,1484.8,577.8z"/>
		</g>
		<path class="st13" d="M1489.4,624.2c0,0-29.8-1.4-37.5-4.9c-4.7-2.1-43-33-43-33l0.4-82.6l-26.9-2c0,0-14,91.3-9.1,101.3
			c5,10.3,61.1,52.8,72.3,71.3c6.5,10.6,19.9,155.1,22,156.4c14.5,7.5,59.3,15.1,58.3,10.5C1496.7,714.7,1489.4,624.2,1489.4,624.2z
			"/>
		<path class="st15" d="M1502.2,587.3l17.3-5.5c0,0,1.7,6.7-5.9,9.4C1504.4,594.4,1502.2,587.3,1502.2,587.3z"/>
	</g>
</g>
</svg>
